<?xml version="1.0" encoding="utf-8"?>
<!-- Generator: Adobe Illustrator 24.3.0, SVG Export Plug-In . SVG Version: 6.00 Build 0)  -->
<svg version="1.1" id="Слой_1" xmlns="http://www.w3.org/2000/svg" xmlns:xlink="http://www.w3.org/1999/xlink" x="0px" y="0px"
	 viewBox="0 0 500 500" style="enable-background:new 0 0 500 500;" xml:space="preserve">
<style type="text/css">
	.st0{fill:#FFFFFF;}
</style>
<path class="st0" d="M179.95,276.56c-0.17-0.46-0.33-0.94-0.5-1.4c-2.19-6.46-3.89-13.15-5.03-20.01
	c-1.18-6.96-1.78-14.12-1.78-21.41c0-7.29,0.61-14.45,1.78-21.41c1.18-7.09,2.95-13.99,5.26-20.64c-2.11-0.33-4.26-0.5-6.46-0.5
	c-0.19,0-0.39,0-0.58,0.01v-0.29H86.98v0.34c-1.76-0.22-3.54-0.34-5.35-0.34c-23.65,0-42.83,19.17-42.83,42.83
	s19.17,42.83,42.83,42.83c1.81,0,3.6-0.13,5.35-0.34v0.34H179.95z"/>
<path class="st0" d="M418.26,276.56c-2.64,7.48-5.96,14.64-9.87,21.41c-1.33,2.31-2.74,4.58-4.22,6.79
	c-3.41,5.15-7.2,10.03-11.3,14.62c-3.18,3.56-6.55,6.94-10.11,10.11c-4.59,4.1-9.47,7.89-14.62,11.3c-2.21,1.49-4.48,2.89-6.79,4.22
	c-6.77,3.91-13.93,7.23-21.41,9.87c-6.89,2.44-14.05,4.31-21.41,5.53c-6.96,1.18-14.12,1.78-21.41,1.78h-15.19
	c0.31-0.26,0.61-0.52,0.9-0.8c5.06-4.51,9.83-9.31,14.29-14.39c1.8-2.02,3.55-4.1,5.25-6.22c5.4-6.73,10.3-13.89,14.66-21.41
	c0.51-0.88,1.01-1.77,1.51-2.66v-0.06c0.01,0,0.02,0,0.04-0.01c3.33-6.01,6.32-12.25,8.92-18.68c2.81-6.92,5.16-14.07,7.05-21.41
	c1.8-6.97,3.16-14.12,4.07-21.41c0.88-7.02,1.33-14.16,1.33-21.41c0-7.26-0.45-14.39-1.33-21.41c-0.9-7.29-2.27-14.44-4.07-21.41
	c-1.89-7.34-4.25-14.49-7.05-21.41c-2.61-6.45-5.6-12.71-8.95-18.74c0,0,0,0-0.01,0v-0.01c-0.5-0.89-1-1.78-1.51-2.66
	c-4.35-7.52-9.26-14.68-14.66-21.41c-1.7-2.12-3.45-4.2-5.25-6.22c-4.46-5.08-9.23-9.89-14.29-14.39c-0.3-0.27-0.59-0.54-0.9-0.8
	h15.19c7.29,0,14.45,0.61,21.41,1.78c7.36,1.23,14.53,3.09,21.41,5.53c7.48,2.64,14.64,5.96,21.41,9.87
	c2.31,1.33,4.58,2.74,6.79,4.22c5.15,3.41,10.03,7.2,14.62,11.3c3.56,3.18,6.94,6.55,10.11,10.11c4.1,4.59,7.89,9.47,11.3,14.62
	c1.49,2.21,2.89,4.48,4.22,6.79c3.91,6.77,7.23,13.93,9.87,21.41c2.44,6.89,4.31,14.05,5.53,21.41h43.28
	c-0.9-7.29-2.27-14.44-4.07-21.41c-1.89-7.34-4.25-14.49-7.05-21.41c-2.62-6.46-5.6-12.72-8.96-18.75c-0.5-0.89-1-1.78-1.51-2.66
	c-4.35-7.52-9.26-14.68-14.66-21.41c-1.7-2.12-3.45-4.2-5.25-6.22c-4.73-5.39-9.8-10.46-15.19-15.19c-2.02-1.8-4.1-3.55-6.22-5.25
	c-6.73-5.4-13.89-10.3-21.41-14.66c-0.88-0.51-1.77-1.01-2.66-1.51c-6.03-3.35-12.29-6.34-18.75-8.96
	c-6.92-2.81-14.07-5.16-21.41-7.05c-6.97-1.8-14.12-3.16-21.41-4.07c-7.02-0.88-14.16-1.33-21.41-1.33H61.55v0.07
	c-0.44-0.03-0.88-0.07-1.33-0.07c-11.83,0-21.41,9.59-21.41,21.41c0,11.83,9.59,21.41,21.41,21.41c0.45,0,0.89-0.04,1.33-0.07v0.07
	h107.07c4.83,0,9.6,0.26,14.29,0.8c2.4,0.25,4.77,0.58,7.13,0.99c7.36,1.23,14.53,3.09,21.41,5.53c7.48,2.64,14.64,5.96,21.41,9.87
	c2.31,1.33,4.58,2.74,6.79,4.22c5.15,3.41,10.03,7.2,14.62,11.3c3.56,3.18,6.94,6.55,10.11,10.11c1.42,1.58,2.8,3.2,4.14,4.87
	c2.53,3.13,4.94,6.39,7.16,9.76c1.49,2.21,2.89,4.48,4.22,6.79c3.91,6.77,7.23,13.93,9.87,21.41c0.12,0.31,0.23,0.63,0.33,0.95
	c2.27,6.59,4.02,13.43,5.2,20.46c1.18,6.96,1.78,14.12,1.78,21.41c0,7.29-0.61,14.45-1.78,21.41c-1.13,6.8-2.81,13.44-4.97,19.84
	c-0.19,0.52-0.37,1.05-0.56,1.57c-2.64,7.48-5.96,14.64-9.87,21.41c-1.33,2.31-2.74,4.58-4.22,6.79c-2.22,3.35-4.6,6.6-7.14,9.72
	c-1.34,1.68-2.74,3.31-4.16,4.9c-3.18,3.56-6.55,6.94-10.11,10.11c-4.59,4.1-9.47,7.89-14.62,11.3c-2.21,1.49-4.48,2.89-6.79,4.22
	c-6.77,3.91-13.93,7.23-21.41,9.87c-6.89,2.44-14.05,4.31-21.41,5.53c-2.36,0.4-4.72,0.74-7.13,0.99c-4.69,0.54-9.46,0.8-14.29,0.8
	H61.55v0.07c-0.44-0.03-0.88-0.07-1.33-0.07c-11.83,0-21.41,9.59-21.41,21.41c0,11.83,9.59,21.41,21.41,21.41
	c0.45,0,0.89-0.04,1.33-0.07v0.07H297.1c7.26,0,14.39-0.45,21.41-1.33c7.29-0.9,14.44-2.27,21.41-4.07
	c7.34-1.89,14.49-4.25,21.41-7.05c6.46-2.62,12.72-5.6,18.75-8.96c0.89-0.5,1.78-1,2.66-1.51c7.52-4.35,14.68-9.26,21.41-14.66
	c2.12-1.7,4.2-3.45,6.22-5.25c5.39-4.73,10.46-9.8,15.19-15.19c1.8-2.02,3.55-4.1,5.25-6.22c5.4-6.73,10.3-13.89,14.66-21.41
	c0.51-0.88,1.01-1.77,1.51-2.66c3.35-6.03,6.34-12.29,8.96-18.75c2.81-6.92,5.16-14.07,7.05-21.41c1.8-6.97,3.16-14.12,4.07-21.41
	h-43.28C422.57,262.51,420.7,269.67,418.26,276.56z"/>
</svg>
