<?xml version="1.0" encoding="utf-8"?>
<!-- Generator: Adobe Illustrator 24.3.0, SVG Export Plug-In . SVG Version: 6.00 Build 0)  -->
<svg version="1.1" xmlns="http://www.w3.org/2000/svg" xmlns:xlink="http://www.w3.org/1999/xlink" x="0px" y="0px"
	 viewBox="0 0 1000 1003.9" style="enable-background:new 0 0 1000 1003.9;" xml:space="preserve">
<style type="text/css">
	.st0{fill:#1A2641;}
	.st1{fill:#999999;stroke:#999999;stroke-width:2;stroke-miterlimit:10;}
	.st2{fill:#303D67;}
	.st3{fill:#FFFFFF;}
	.st4{fill:#5B6B98;}
	.st5{display:none;}
	.st6{display:inline;}
	.st7{clip-path:url(#SVGID_2_);}
	.st8{clip-path:url(#SVGID_4_);}
	.st9{clip-path:url(#SVGID_8_);}
	.st10{clip-path:url(#SVGID_10_);}
</style>
<g id="Слой_1">
</g>
<g id="Слой_2">
</g>
<g id="Слой_4">
</g>
<g id="Слой_3">
	<g>
		<g>
			
				<image style="overflow:visible;opacity:0.75;" width="4868" height="4868" xlink:href="621C030B.png"  transform="matrix(0.24 0 0 0.24 -94.15 -57.19)">
			</image>
			<g>
				<path class="st2" d="M961.2,1000H38.8C17.4,1000,0,982.6,0,961.2V38.8C0,17.4,17.4,0,38.8,0h922.4c21.4,0,38.8,17.4,38.8,38.8
					v922.4C1000,982.6,982.6,1000,961.2,1000z"/>
			</g>
		</g>
		<path class="st3" d="M371,581.6c-0.3-0.8-0.6-1.6-0.9-2.4c-3.8-11.3-6.8-22.9-8.8-34.9c-2.1-12.1-3.1-24.6-3.1-37.3
			s1.1-25.2,3.1-37.3c2.1-12.4,5.1-24.4,9.2-36c-3.7-0.6-7.4-0.9-11.3-0.9c-0.3,0-0.7,0-1,0v-0.5H209v0.6c-3.1-0.4-6.2-0.6-9.3-0.6
			c-41.2,0-74.7,33.4-74.7,74.7s33.4,74.7,74.7,74.7c3.2,0,6.3-0.2,9.3-0.6v0.6H371z"/>
		<path class="st3" d="M786.4,581.6c-4.6,13-10.4,25.5-17.2,37.3c-2.3,4-4.8,8-7.4,11.8c-6,9-12.5,17.5-19.7,25.5
			c-5.5,6.2-11.4,12.1-17.6,17.6c-8,7.2-16.5,13.7-25.5,19.7c-3.9,2.6-7.8,5-11.8,7.4c-11.8,6.8-24.3,12.6-37.3,17.2
			c-12,4.3-24.5,7.5-37.3,9.6c-12.1,2.1-24.6,3.1-37.3,3.1h-26.5c0.5-0.5,1.1-0.9,1.6-1.4c8.8-7.9,17.1-16.2,24.9-25.1
			c3.1-3.5,6.2-7.2,9.1-10.8c9.4-11.7,18-24.2,25.5-37.3c0.9-1.5,1.8-3.1,2.6-4.6v-0.1c0,0,0,0,0.1,0c5.8-10.5,11-21.4,15.6-32.6
			c4.9-12.1,9-24.5,12.3-37.3c3.1-12.2,5.5-24.6,7.1-37.3c1.5-12.2,2.3-24.7,2.3-37.3c0-12.6-0.8-25.1-2.3-37.3
			c-1.6-12.7-4-25.2-7.1-37.3c-3.3-12.8-7.4-25.3-12.3-37.3c-4.5-11.2-9.8-22.1-15.6-32.7c0,0,0,0,0,0v0c-0.9-1.6-1.7-3.1-2.6-4.6
			c-7.6-13.1-16.1-25.6-25.5-37.3c-3-3.7-6-7.3-9.1-10.8c-7.8-8.9-16.1-17.2-24.9-25.1c-0.5-0.5-1-0.9-1.6-1.4h26.5
			c12.7,0,25.2,1.1,37.3,3.1c12.8,2.1,25.3,5.4,37.3,9.6c13,4.6,25.5,10.4,37.3,17.2c4,2.3,8,4.8,11.8,7.4c9,6,17.5,12.5,25.5,19.7
			c6.2,5.5,12.1,11.4,17.6,17.6c7.2,8,13.7,16.5,19.7,25.5c2.6,3.9,5,7.8,7.4,11.8c6.8,11.8,12.6,24.3,17.2,37.3
			c4.3,12,7.5,24.5,9.6,37.3h75.4c-1.6-12.7-4-25.2-7.1-37.3c-3.3-12.8-7.4-25.3-12.3-37.3c-4.6-11.3-9.8-22.2-15.6-32.7
			c-0.9-1.6-1.7-3.1-2.6-4.6c-7.6-13.1-16.1-25.6-25.5-37.3c-3-3.7-6-7.3-9.1-10.8c-8.3-9.4-17.1-18.2-26.5-26.5
			c-3.5-3.1-7.2-6.2-10.8-9.1c-11.7-9.4-24.2-18-37.3-25.5c-1.5-0.9-3.1-1.8-4.6-2.6c-10.5-5.8-21.4-11.1-32.7-15.6
			c-12.1-4.9-24.5-9-37.3-12.3c-12.2-3.1-24.6-5.5-37.3-7.1c-12.2-1.5-24.7-2.3-37.3-2.3H164.6v0.1c-0.8,0-1.5-0.1-2.3-0.1
			c-20.6,0-37.3,16.7-37.3,37.3c0,20.6,16.7,37.3,37.3,37.3c0.8,0,1.6-0.1,2.3-0.1v0.1h186.6c8.4,0,16.7,0.5,24.9,1.4
			c4.2,0.4,8.3,1,12.4,1.7c12.8,2.1,25.3,5.4,37.3,9.6c13,4.6,25.5,10.4,37.3,17.2c4,2.3,8,4.8,11.8,7.4c9,6,17.5,12.5,25.5,19.7
			c6.2,5.5,12.1,11.4,17.6,17.6c2.5,2.8,4.9,5.6,7.2,8.5c4.4,5.5,8.6,11.1,12.5,17c2.6,3.9,5,7.8,7.4,11.8
			c6.8,11.8,12.6,24.3,17.2,37.3c0.2,0.5,0.4,1.1,0.6,1.7c4,11.5,7,23.4,9.1,35.7c2.1,12.1,3.1,24.6,3.1,37.3s-1.1,25.2-3.1,37.3
			c-2,11.9-4.9,23.4-8.7,34.6c-0.3,0.9-0.6,1.8-1,2.7c-4.6,13-10.4,25.5-17.2,37.3c-2.3,4-4.8,8-7.4,11.8c-3.9,5.8-8,11.5-12.4,16.9
			c-2.3,2.9-4.8,5.8-7.3,8.5c-5.5,6.2-11.4,12.1-17.6,17.6c-8,7.2-16.5,13.7-25.5,19.7c-3.9,2.6-7.8,5-11.8,7.4
			c-11.8,6.8-24.3,12.6-37.3,17.2c-12,4.3-24.5,7.5-37.3,9.6c-4.1,0.7-8.2,1.3-12.4,1.7c-8.2,0.9-16.5,1.4-24.9,1.4H164.6v0.1
			c-0.8,0-1.5-0.1-2.3-0.1c-20.6,0-37.3,16.7-37.3,37.3c0,20.6,16.7,37.3,37.3,37.3c0.8,0,1.6-0.1,2.3-0.1v0.1h410.6
			c12.6,0,25.1-0.8,37.3-2.3c12.7-1.6,25.2-4,37.3-7.1c12.8-3.3,25.3-7.4,37.3-12.3c11.3-4.6,22.2-9.8,32.7-15.6
			c1.6-0.9,3.1-1.7,4.6-2.6c13.1-7.6,25.6-16.1,37.3-25.5c3.7-3,7.3-6,10.8-9.1c9.4-8.3,18.2-17.1,26.5-26.5
			c3.1-3.5,6.2-7.2,9.1-10.8c9.4-11.7,18-24.2,25.5-37.3c0.9-1.5,1.8-3.1,2.6-4.6c5.8-10.5,11.1-21.4,15.6-32.7
			c4.9-12.1,9-24.5,12.3-37.3c3.1-12.2,5.5-24.6,7.1-37.3h-75.4C794,557.1,790.7,569.6,786.4,581.6z"/>
	</g>
</g>
<g id="Слой_5" class="st5">
</g>
</svg>
